# xmcd CD database file
#
# Track frame offsets:
#	150
#	23187
#	37911
#	64474
#	83577
#	94200
#	120375
#	143454
#	159958
#	177251
#	198202
#	220837
#	245487
#	261957
#	273327
#
# Disc length: 3959 seconds
#
# Revision: 0
# Processed by: cddbd v1.5.2PL0 Copyright (c) Steve Scherf et al.
# Submitted via: CDex 1.70beta3
#
DISCID=c50f750f
DTITLE=Various Artist - 浪漫大陸 ROMANTIC CHINA
DYEAR=2008
DGENRE=New Age
TTITLE0=Ｐａｌａｃｅ Ｍｅｍｏｒｉｅｓ
TTITLE1=ボイジャーズ～イースト・ミーツ・ウエスト
TTITLE2=Ｔｈｅ Ｌａｓｔ Ｅｍｐｅｒｏｒ
TTITLE3=Ｇ線上のアリア ［Ｕｎｄｅｒ ｔｈｅ Ｓｅａ］
TTITLE4=タン・ドゥン：グリーン・デスティニー～愛のテーマ
TTITLE5=Ｔｅｒｒａ Ｆｉｒｍａ
TTITLE6=蘇州夜曲
TTITLE7=虹のかなたに
TTITLE8=何日君再来
TTITLE9=ジャスミン・フラワー
TTITLE10=タイスの瞑想曲
TTITLE11=佳人曲（Ｊｉａ Ｒｕｎ Ｑｕ）～Ｓｏｎｇ ｆｏｒ ｔｈｅ Ｂｅａｕｔｙ～ 
TTITLE12=バンブー（バオ・ベイ）
TTITLE13=亜麻色の髪の乙女
TTITLE14=バタフライ・ラヴァーズ（抜粋）
EXTD=YEAR: 2008
EXTT0=
EXTT1=
EXTT2=
EXTT3=
EXTT4=
EXTT5=
EXTT6=
EXTT7=
EXTT8=
EXTT9=
EXTT10=
EXTT11=
EXTT12=
EXTT13=
EXTT14=
PLAYORDER=
